<svg xmlns="http://www.w3.org/2000/svg" width="360" height="270" viewBox="0 0 360 270">
  <defs>
    <linearGradient id="bg" x1="0" y1="0" x2="1" y2="1">
      <stop offset="0%" stop-color="#f8fafc"/>
      <stop offset="100%" stop-color="#e0f2fe"/>
    </linearGradient>
    <filter id="shadow" x="-30%" y="-30%" width="160%" height="160%">
      <feDropShadow dx="0" dy="14" stdDeviation="12" flood-color="#0f172a" flood-opacity="0.22"/>
    </filter>
  </defs>
  <rect width="360" height="270" rx="24" fill="url(#bg)"/>
  
  <g filter="url(#shadow)">
    <rect x="55" y="84" width="250" height="104" rx="18" fill="#e2e8f0"/>
    <g fill="#334155">
      <rect x="78" y="108" width="22" height="16" rx="4"/><rect x="108" y="108" width="22" height="16" rx="4"/><rect x="138" y="108" width="22" height="16" rx="4"/><rect x="168" y="108" width="22" height="16" rx="4"/><rect x="198" y="108" width="22" height="16" rx="4"/><rect x="228" y="108" width="22" height="16" rx="4"/><rect x="258" y="108" width="22" height="16" rx="4"/>
      <rect x="78" y="135" width="22" height="16" rx="4"/><rect x="108" y="135" width="22" height="16" rx="4"/><rect x="138" y="135" width="22" height="16" rx="4"/><rect x="168" y="135" width="22" height="16" rx="4"/><rect x="198" y="135" width="52" height="16" rx="4"/><rect x="258" y="135" width="22" height="16" rx="4"/>
    </g>
  </g>
  <text x="180" y="248" text-anchor="middle" font-family="Arial, sans-serif" font-size="20" font-weight="800" fill="#111827">Keyboard</text>
</svg>